<svg width="52" height="54" viewBox="0 0 52 54" fill="none" xmlns="http://www.w3.org/2000/svg">
<path fill-rule="evenodd" clip-rule="evenodd" d="M6.34912 0.974023L6.31304 1.0101H6.24089L6.20482 1.04617H6.16874L6.13267 1.08225H6.09659L5.98837 1.19047V1.22655L5.91622 1.2987V1.33477L5.88014 1.37085V1.443L5.84406 1.47907V1.55122L5.80799 1.5873V1.7316L5.77191 1.76767V2.05627L5.73584 2.09235V2.81385L5.77191 2.84992V34.7042L5.73584 34.7403V35.9668L5.77191 36.0029V36.6883L5.80799 36.7244V37.0491L5.84406 37.0851V37.3016L5.88014 37.3377V37.518L5.91622 37.5541V37.6623L5.95229 37.6984V37.8066L5.98837 37.8427V37.9149L6.02444 37.9509V38.0231L6.06052 38.0592V38.0952L6.09659 38.1313V38.2035L6.13267 38.2395V38.2756L6.20482 38.3478V38.3838L6.24089 38.4199V38.456L6.31304 38.5281V38.5642L6.38519 38.6364V38.6724L6.60164 38.8889V38.925L6.74594 39.0693H6.78202L7.17884 39.4661H7.21492L7.32314 39.5743H7.35922L7.43137 39.6465H7.46744L7.53959 39.7186H7.57567L7.64782 39.7908H7.68389L7.75604 39.8629H7.79212L7.82819 39.899H7.86427L7.93642 39.9711H7.97249L8.04464 40.0433H8.08072L8.15287 40.1154H8.18894L8.26109 40.1876H8.29717L8.36932 40.2597H8.40539L8.44147 40.2958H8.47754L8.54969 40.368H8.58577L8.65792 40.4401H8.69399L8.76614 40.5123H8.80222L8.87437 40.5844H8.91044L8.98259 40.6566H9.01867L9.05474 40.6926H9.09082L9.16297 40.7648H9.19904L9.27119 40.8369H9.30727L9.37942 40.9091H9.41549L9.48764 40.9812H9.52372L9.55979 41.0173H9.59587L9.66802 41.0895H9.70409L9.77624 41.1616H9.81232L9.88447 41.2338H9.92054L9.99269 41.3059H10.0288L10.1009 41.3781H10.137L10.1731 41.4141H10.2091L10.2813 41.4863H10.3174L10.3895 41.5584H10.4256L10.4977 41.6306H10.5338L10.606 41.7027H10.642L10.6781 41.7388H10.7142L10.7863 41.811H10.8224L10.8946 41.8831H10.9306L11.0028 41.9553H11.0389L11.0749 41.9913H11.111L11.1832 42.0635H11.2192L11.2914 42.1356H11.3275L11.3996 42.2078H11.4357L11.5078 42.2799H11.5439L11.58 42.316H11.6161L11.6882 42.3882H11.7243L11.7964 42.4603H11.8325L11.9047 42.5325H11.9407L11.9768 42.5685H12.0129L12.085 42.6407H12.1211L12.1933 42.7128H12.2293L12.3015 42.785H12.3376L12.3736 42.8211H12.4097L12.4819 42.8932H12.5179L12.5901 42.9654H12.6262L12.6983 43.0375H12.7344L12.7705 43.0736H12.8065L12.8787 43.1457H12.9148L12.9869 43.2179H13.023L13.0951 43.29H13.1312L13.1673 43.3261H13.2034L13.2755 43.3983H13.3116L13.3837 43.4704H13.4198L13.492 43.5426H13.528L13.5641 43.5786H13.6002L13.6723 43.6508H13.7084L13.7806 43.7229H13.8166L13.8888 43.7951H13.9249L13.9609 43.8312H13.997L14.0692 43.9033H14.1052L14.1774 43.9755H14.2135L14.2495 44.0115H14.2856L14.3578 44.0837H14.3938L14.466 44.1558H14.5021L14.5742 44.228H14.6103L14.6464 44.2641H14.6824L14.7546 44.3362H14.7907L14.8628 44.4084H14.8989L14.935 44.4444H14.971L15.0432 44.5166H15.0793L15.1514 44.5887H15.1875L15.2236 44.6248H15.2596L15.3318 44.697H15.3679L15.44 44.7691H15.4761L15.5122 44.8052H15.5482L15.6204 44.8773H15.6565L15.7286 44.9495H15.7647L15.8008 44.9856H15.8368L15.909 45.0577H15.9451L16.0172 45.1299H16.0533L16.0894 45.1659H16.1254L16.1976 45.2381H16.2337L16.3058 45.3102H16.3419L16.378 45.3463H16.4141L16.4862 45.4185H16.5223L16.5944 45.4906H16.6305L16.6666 45.5267H16.7027L16.7748 45.5988H16.8109L16.883 45.671H16.9191L16.9552 45.7071H16.9913L17.0634 45.7792H17.0995L17.1716 45.8514H17.2077L17.2438 45.8874H17.2799L17.352 45.9596H17.3881L17.4242 45.9957H17.4602L17.5324 46.0678H17.5685L17.6406 46.14H17.6767L17.7128 46.176H17.7488L17.821 46.2482H17.8571L17.9292 46.3203H17.9653L18.0014 46.3564H18.0374L18.1096 46.4286H18.1457L18.1817 46.4646H18.2178L18.29 46.5368H18.326L18.3982 46.6089H18.4343L18.4703 46.645H18.5064L18.5786 46.7172H18.6146L18.6507 46.7532H18.6868L18.7589 46.8254H18.795L18.8311 46.8615H18.8672L18.9393 46.9336H18.9754L19.0475 47.0058H19.0836L19.1197 47.0418H19.1558L19.2279 47.114H19.264L19.3001 47.1501H19.3361L19.4083 47.2222H19.4444L19.4804 47.2583H19.5165L19.5887 47.3304H19.6247L19.6608 47.3665H19.6969L19.769 47.4387H19.8051L19.8412 47.4747H19.8773L19.9494 47.5469H19.9855L20.0576 47.619H20.0937L20.1298 47.6551H20.1659L20.238 47.7273H20.2741L20.3102 47.7633H20.3462L20.4184 47.8355H20.4545L20.4905 47.8716H20.5266L20.5988 47.9437H20.6348L20.6709 47.9798H20.707L20.7791 48.0519H20.8152L20.8513 48.088H20.8874L20.9595 48.1602H20.9956L21.0317 48.1962H21.0677L21.1038 48.2323H21.1399L21.212 48.3045H21.2481L21.2842 48.3405H21.3203L21.3924 48.4127H21.4285L21.4646 48.4488H21.5006L21.5728 48.5209H21.6089L21.6449 48.557H21.681L21.7532 48.6291H21.7892L21.8253 48.6652H21.8614L21.8975 48.7013H21.9335L22.0057 48.7734H22.0418L22.0778 48.8095H22.1139L22.15 48.8456H22.1861L22.2582 48.9177H22.2943L22.3304 48.9538H22.3664L22.4386 49.026H22.4747L22.5107 49.062H22.5468L22.5829 49.0981H22.619L22.6911 49.1703H22.7272L22.7633 49.2063H22.7993L22.8354 49.2424H22.8715L22.9076 49.2785H22.9436L22.9797 49.3146H23.0158L23.0519 49.3506H23.124L23.1601 49.3867H23.2322L23.2683 49.4228H23.3044L23.3405 49.4589H23.4126L23.4487 49.4949H23.5208L23.5569 49.531H23.6291L23.6651 49.5671H23.7373L23.7734 49.6032H23.8455L23.8816 49.6392H23.9537L23.9898 49.6753H24.062L24.098 49.7114H24.2063L24.2423 49.7475H24.3145L24.3506 49.7835H24.4588L24.4949 49.8196H24.567L24.6031 49.8557H24.7113L24.7474 49.8918H24.8917L24.9278 49.9278H25.0721L25.1081 49.9639H25.4328L25.4689 49.9278H25.6853L25.7214 49.8918H25.8657L25.9018 49.8557H26.01L26.0461 49.8196H26.1543L26.1904 49.7835H26.2625L26.2986 49.7475H26.3708L26.4068 49.7114H26.479L26.5151 49.6753H26.5511L26.5872 49.6392H26.6594L26.6954 49.6032H26.7315L26.7676 49.5671H26.8037L26.8758 49.4949H26.9119L26.948 49.4589H26.984L27.0562 49.3867H27.0923L27.2005 49.2785H27.2366L27.6334 48.8817V48.8456L27.7416 48.7374V48.7013L27.7777 48.6652V48.6291L27.8498 48.557V48.5209L27.8859 48.4848V48.4488L27.922 48.4127V48.3766L27.9581 48.3405V48.3045L27.9941 48.2684V48.2323L28.0302 48.1962V48.1602L28.0663 48.1241V48.0519L28.1024 48.0159V47.9437L28.1384 47.9076V47.8355L28.1745 47.7994V47.7273L28.2106 47.6912V47.583L28.2467 47.5469V47.4387L28.2827 47.4026V47.2944L28.3188 47.2583V47.0779L28.3549 47.0418V46.8615L28.391 46.8254V46.6089L28.427 46.5729V46.2843L28.4631 46.2482V45.9596L28.4992 45.9235V45.4906L28.5353 45.4545V44.8773L28.5713 44.8413V43.7951L28.6074 43.759V40.1876L28.6435 40.1515V21.2121L28.6074 21.176V20.9235L28.5713 20.8874V20.6349L28.5353 20.5988V20.4185L28.4992 20.3824V20.1659L28.4631 20.1299V19.9856L28.427 19.9495V19.7691L28.391 19.733V19.5887L28.3549 19.5527V19.4444L28.3188 19.4084V19.2641L28.2827 19.228V19.1198L28.2467 19.0837V18.9755L28.2106 18.9394V18.8312L28.1745 18.7951V18.6869L28.1384 18.6508V18.5426L28.1024 18.5065V18.3983L28.0663 18.3622V18.29L28.0302 18.254V18.1457L27.9941 18.1097V18.0375L27.9581 18.0014V17.9293L27.922 17.8932V17.8211L27.8859 17.785V17.6768L27.8498 17.6407V17.5685L27.8138 17.5325V17.4603L27.7777 17.4242V17.3882L27.7416 17.3521V17.2799L27.7055 17.2439V17.1717L27.6695 17.1356V17.0635L27.6334 17.0274V16.9553L27.5973 16.9192V16.8831L27.5612 16.847V16.7749L27.5252 16.7388V16.7027L27.4891 16.6667V16.5945L27.453 16.5584V16.5224L27.4169 16.4863V16.4141L27.3809 16.3781V16.342L27.3448 16.3059V16.2698L27.3087 16.2338V16.1616L27.2726 16.1255V16.0895L27.2366 16.0534V16.0173L27.2005 15.9812V15.9452L27.1644 15.9091V15.873L27.1283 15.8369V15.8009L27.0923 15.7648V15.6926L27.0562 15.6566V15.6205L27.0201 15.5844V15.5483L26.984 15.5123V15.4762L26.9119 15.404V15.368L26.8758 15.3319V15.2958L26.8397 15.2597V15.2237L26.8037 15.1876V15.1515L26.7676 15.1154V15.0794L26.7315 15.0433V15.0072L26.6954 14.9711V14.9351L26.6233 14.8629V14.8268L26.5872 14.7908V14.7547L26.5151 14.6825V14.6465L26.479 14.6104V14.5743L26.4068 14.5022V14.4661L26.3708 14.43V14.3939L26.2986 14.3218V14.2857L26.2265 14.2136V14.1775L26.1543 14.1053V14.0693L26.0822 13.9971V13.961L26.01 13.8889V13.8528L25.9018 13.7446V13.7085L25.7936 13.6003V13.5642L25.6853 13.456V13.4199L25.5771 13.3117V13.2756L25.3967 13.0952V13.0592L25.1442 12.8066V12.7706L24.9278 12.5541H24.8917L24.6031 12.2655H24.567L24.3506 12.0491H24.3145L24.1341 11.8687H24.098L23.9177 11.6883H23.8816L23.7373 11.544H23.7012L23.5569 11.3997H23.5208L23.4126 11.2915H23.3765L23.2683 11.1833H23.2322L23.124 11.075H23.0879L22.9797 10.9668H22.9436L22.8354 10.8586H22.7993L22.6911 10.7504H22.655L22.5468 10.6421H22.5107L22.4386 10.57H22.4025L22.2943 10.4618H22.2582L22.1861 10.3896H22.15L22.0418 10.2814H22.0057L21.9335 10.2092H21.8975L21.7892 10.101H21.7532L21.681 10.0289H21.6449L21.5728 9.95671H21.5367L21.5006 9.92063H21.4646L21.3924 9.84848H21.3563L21.3203 9.81241H21.2842L21.212 9.74026H21.176L21.1399 9.70418H21.1038L21.0317 9.63203H20.9956L20.9595 9.59596H20.9234L20.8513 9.52381H20.8152L20.7791 9.48773H20.7431L20.6709 9.41558H20.6348L20.5988 9.37951H20.5627L20.4905 9.30735H20.4545L20.4184 9.27128H20.3823L20.3102 9.19913H20.2741L20.238 9.16306H20.2019L20.1298 9.09091H20.0937L20.0576 9.05483H20.0216L19.9494 8.98268H19.9133L19.8773 8.94661H19.8412L19.769 8.87446H19.733L19.6969 8.83838H19.6608L19.5887 8.76623H19.5526L19.5165 8.73015H19.4804L19.4083 8.65801H19.3722L19.3361 8.62193H19.3001L19.2279 8.54978H19.1918L19.1558 8.51371H19.1197L19.0475 8.44156H19.0115L18.9754 8.40548H18.9393L18.8672 8.33333H18.8311L18.795 8.29725H18.7589L18.6868 8.2251H18.6507L18.6146 8.18903H18.5786L18.5064 8.11688H18.4703L18.4343 8.0808H18.3982L18.326 8.00865H18.29L18.2539 7.97258H18.2178L18.1457 7.90043H18.1096L18.0735 7.86435H18.0374L17.9653 7.7922H17.9292L17.8931 7.75613H17.8571L17.7849 7.68398H17.7488L17.7128 7.6479H17.6767L17.6045 7.57575H17.5685L17.5324 7.53968H17.4963L17.4242 7.46753H17.3881L17.3159 7.39538H17.2799L17.2438 7.3593H17.2077L17.1356 7.28715H17.0995L17.0634 7.25108H17.0273L16.9552 7.17893H16.9191L16.883 7.14285H16.847L16.7748 7.0707H16.7387L16.7027 7.03463H16.6666L16.5944 6.96248H16.5584L16.5223 6.9264H16.4862L16.4141 6.85425H16.378L16.3419 6.81818H16.3058L16.2337 6.74603H16.1976L16.1615 6.70995H16.1254L16.0533 6.6378H16.0172L15.9451 6.56565H15.909L15.8729 6.52958H15.8368L15.7647 6.45743H15.7286L15.6925 6.42135H15.6565L15.5843 6.3492H15.5482L15.5122 6.31313H15.4761L15.4039 6.24098H15.3679L15.3318 6.2049H15.2957L15.2236 6.13275H15.1875L15.1153 6.0606H15.0793L15.0432 6.02453H15.0071L14.935 5.95238H14.8989L14.8628 5.9163H14.8267L14.7546 5.84415H14.7185L14.6824 5.80808H14.6464L14.5742 5.73593H14.5381L14.466 5.66378H14.4299L14.3938 5.6277H14.3578L14.2856 5.55555H14.2495L14.1774 5.4834H14.1413L14.1052 5.44733H14.0692L13.997 5.37518H13.9609L13.9249 5.3391H13.8888L13.8166 5.26695H13.7806L13.7084 5.1948H13.6723L13.6363 5.15873H13.6002L13.528 5.08658H13.492L13.4198 5.01443H13.3837L13.3477 4.97835H13.3116L13.2394 4.9062H13.2034L13.1673 4.87013H13.1312L13.0591 4.79798H13.023L12.9508 4.72583H12.9148L12.8787 4.68975H12.8426L12.7705 4.6176H12.7344L12.6622 4.54545H12.6262L12.5901 4.50938H12.554L12.4819 4.43723H12.4458L12.3736 4.36508H12.3376L12.3015 4.329H12.2654L12.1933 4.25685H12.1572L12.085 4.1847H12.049L12.0129 4.14863H11.9768L11.9047 4.07648H11.8686L11.7964 4.00433H11.7604L11.6882 3.93218H11.6521L11.6161 3.8961H11.58L11.5078 3.82395H11.4718L11.3996 3.7518H11.3635L11.3275 3.71573H11.2914L11.2192 3.64358H11.1832L11.111 3.57142H11.0749L11.0028 3.49928H10.9667L10.9306 3.4632H10.8946L10.8224 3.39105H10.7863L10.7142 3.3189H10.6781L10.606 3.24675H10.5699L10.5338 3.21067H10.4977L10.4256 3.13853H10.3895L10.3174 3.06637H10.2813L10.2091 2.99422H10.1731L10.1009 2.92207H10.0648L9.99269 2.84992H9.95662L9.92054 2.81385H9.88447L9.81232 2.7417H9.77624L9.70409 2.66955H9.66802L9.59587 2.5974H9.55979L9.48764 2.52525H9.45157L9.37942 2.4531H9.34334L9.30727 2.41702H9.27119L9.19904 2.34487H9.16297L9.09082 2.27272H9.05474L8.98259 2.20057H8.94652L8.87437 2.12842H8.83829L8.76614 2.05627H8.73007L8.65792 1.98412H8.62184L8.54969 1.91197H8.51362L8.44147 1.83982H8.40539L8.33324 1.76767H8.29717L8.22502 1.69552H8.18894L8.15287 1.65945H8.11679L8.04464 1.5873H8.00857L7.93642 1.51515H7.90034L7.82819 1.443H7.79212L7.71997 1.37085H7.68389L7.61174 1.2987H7.57567L7.53959 1.26262H7.50352L7.46744 1.22655H7.43137L7.39529 1.19047H7.35922L7.32314 1.1544H7.25099L7.21492 1.11832H7.17884L7.14277 1.08225H7.07062L7.03454 1.04617H6.96239L6.92632 1.0101H6.81809L6.78202 0.974023H6.34912ZM23.1962 0.0360719L23.1601 0.0360718H23.0879H23.0158L22.9797 0.0721468H22.9436L22.8781 0.0922478L22.8354 0.140944L22.7993 0.180372L22.655 0.324672H22.619V0.360747L22.5107 0.468972V0.505047L22.4747 0.541122V0.577197L22.4386 0.613272V0.685422L22.4025 0.721497V1.0101L22.4386 1.04617V1.08225L22.4747 1.11832V1.1544L22.5107 1.19047V1.22655L22.7633 1.47907H22.7993L22.8354 1.51515H22.8715L22.9436 1.5873H22.9797L23.0519 1.65945H23.0879L23.1601 1.7316H23.1962L23.2322 1.76767H23.2683L23.3405 1.83982H23.3765L23.4487 1.91197H23.4848L23.5208 1.94805H23.5569L23.6291 2.0202H23.6651L23.7373 2.09235H23.7734L23.8094 2.12842H23.8455L23.9177 2.20057H23.9537L23.9898 2.23665H24.0259L24.098 2.3088H24.1341L24.2063 2.38095H24.2423L24.2784 2.41702H24.3145L24.3866 2.48917H24.4227L24.4588 2.52525H24.4949L24.567 2.5974H24.6031L24.6752 2.66955H24.7113L24.7474 2.70562H24.7835L24.8556 2.77777H24.8917L24.9638 2.84992H24.9999L25.036 2.886H25.0721L25.1442 2.95815H25.1803L25.2164 2.99422H25.2524L25.3246 3.06637H25.3607L25.4328 3.13853H25.4689L25.505 3.1746H25.541L25.6132 3.24675H25.6493L25.6853 3.28282H25.7214L25.7936 3.35498H25.8296L25.9018 3.42712H25.9379L25.9739 3.4632H26.01L26.0822 3.53535H26.1182L26.1904 3.6075H26.2265L26.2625 3.64358H26.2986L26.3708 3.71573H26.4068L26.4429 3.7518H26.479L26.5511 3.82395H26.5872L26.6594 3.8961H26.6954L26.7315 3.93218H26.7676L26.8397 4.00433H26.8758L26.9119 4.0404H26.948L27.0201 4.11255H27.0562L27.1283 4.1847H27.1644L27.2005 4.22078H27.2366L27.3087 4.29293H27.3448L27.3809 4.329H27.4169L27.4891 4.40115H27.5252L27.5973 4.4733H27.6334L27.6695 4.50938H27.7055L27.7777 4.58153H27.8138L27.8498 4.6176H27.8859L27.9581 4.68975H27.9941L28.0663 4.7619H28.1024L28.1384 4.79798H28.1745L28.2467 4.87013H28.2827L28.3188 4.9062H28.3549L28.427 4.97835H28.4631L28.5353 5.0505H28.5713L28.6074 5.08658H28.6435L28.7156 5.15873H28.7517L28.7878 5.1948H28.8239L28.896 5.26695H28.9321L29.0042 5.3391H29.0403L29.0764 5.37518H29.1125L29.1846 5.44733H29.2207L29.2568 5.4834H29.2928L29.365 5.55555H29.4011L29.4371 5.59163H29.4732L29.5454 5.66378H29.5814L29.6536 5.73593H29.6897L29.7257 5.772H29.7618L29.834 5.84415H29.87L29.9061 5.88023H29.9422L29.9783 5.9163H30.0143L30.0504 5.95238H30.0865L30.1226 5.98845H30.1586L30.2308 6.0606H30.2669L30.3029 6.09668H30.339L30.4112 6.16883H30.4472L30.4833 6.2049H30.5194L30.5915 6.27705H30.6276L30.6637 6.31313H30.6998L30.7719 6.38528H30.808L30.8801 6.45743H30.9162L30.9884 6.52958H31.0244L31.0966 6.60173H31.1327L31.2409 6.70995H31.277L31.3852 6.81818H31.4213L31.5295 6.9264H31.5656L31.6738 7.03463H31.7099L31.8542 7.17893H31.8902L32.0706 7.3593H32.1067L32.3592 7.61183H32.3953L33.3693 8.58585V8.62193L33.6218 8.87446V8.91053L33.8022 9.09091V9.12698L33.9465 9.27128V9.30735L34.0547 9.41558V9.45166L34.163 9.55988V9.59596L34.2351 9.66811V9.70418L34.3433 9.81241V9.84848L34.4155 9.92063V9.95671L34.4876 10.0289V10.0649L34.5598 10.1371V10.1732L34.6319 10.2453V10.2814L34.668 10.3175V10.3535L34.7402 10.4257V10.4618L34.7762 10.4978V10.5339L34.8484 10.6061V10.6421L34.8845 10.6782V10.7143L34.9205 10.7504V10.7864L34.9927 10.8586V10.8947L35.0288 10.9307V10.9668L35.0648 11.0029V11.039L35.1009 11.075V11.1111L35.137 11.1472V11.1833L35.1731 11.2193V11.2554L35.2091 11.2915V11.3276L35.2452 11.3636V11.3997L35.2813 11.4358V11.4719L35.3174 11.5079V11.544L35.3534 11.5801V11.6162L35.3895 11.6522V11.6883L35.4256 11.7244V11.7965L35.4617 11.8326V11.8687L35.4977 11.9048V11.9408L35.5338 11.9769V12.0491L35.5699 12.0851V12.1212L35.606 12.1573V12.1934L35.642 12.2294V12.3016L35.6781 12.3377V12.4098L35.7142 12.4459V12.482L35.7503 12.518V12.5902L35.7863 12.6263V12.6984L35.8224 12.7345V12.8066L35.8585 12.8427V12.9149L35.8946 12.9509V13.0231L35.9306 13.0592V13.1313L35.9667 13.1674V13.2756L36.0028 13.3117V13.3838L36.0389 13.4199V13.5281L36.0749 13.5642V13.6724L36.111 13.7085V13.8167L36.1471 13.8528V13.9971L36.1832 14.0332V14.1414L36.2192 14.1775V14.3218L36.2553 14.3579V14.5382L36.2914 14.5743V14.7547L36.3275 14.7908V15.0072L36.3635 15.0433V15.2958L36.3996 15.3319V15.6566L36.4357 15.6926V16.2698L36.4718 16.3059V17.0274L36.5078 17.0635V17.9654L36.5439 18.0014V19.0476L36.58 19.0837V20.3824L36.6161 20.4185V22.1501L36.6521 22.1861V24.6392L36.6882 24.6753V36.9408L36.7243 36.9769V37.1212L36.7604 37.1573V37.2655L36.7964 37.3016V37.3737L36.8325 37.4098V37.4459L36.8686 37.482V37.518L36.9047 37.5541V37.5902L36.9407 37.6263V37.6623L36.9768 37.6984V37.7345L37.049 37.8066V37.8427L37.3736 38.1674H37.4097L37.4819 38.2395H37.5179L37.554 38.2756H37.5901L37.6262 38.3117H37.6622L37.6983 38.3478H37.7344L37.7705 38.3838H37.8426L37.8787 38.4199H37.9869L38.023 38.456H38.1312L38.1673 38.4921H38.4559L38.492 38.5281H42.6045L42.6406 38.4921H42.8931L42.9292 38.456H43.0735L43.1096 38.4199H43.1817L43.2178 38.3838H43.29L43.326 38.3478H43.3621L43.3982 38.3117H43.4342L43.4703 38.2756H43.5064L43.5425 38.2395H43.5786L43.6507 38.1674H43.6868L43.9393 37.9149V37.8788L44.0114 37.8066V37.7706L44.0475 37.7345V37.6984L44.0836 37.6623V37.6263L44.1197 37.5902V37.518L44.1558 37.482V37.4098L44.1918 37.3737V37.2294L44.2279 37.1934V1.37085L44.1918 1.33477V1.11832L44.1558 1.08225V0.937948L44.1197 0.901873V0.829723L44.0836 0.793647V0.721497L44.0475 0.685422V0.649347L44.0114 0.613272V0.577197L43.9032 0.468972V0.432897L43.8311 0.360747H43.795L43.7229 0.288597H43.6868L43.6507 0.252522H43.6146L43.5786 0.216447H43.5425L43.5064 0.180372H43.4342L43.3982 0.144297H43.29L43.2539 0.108222H43.0735L43.0374 0.0721468H42.7127L42.6767 0.0360718H23.3765L23.3405 0.0360719H23.1962ZM21.5225 30.2669C21.5225 30.7162 21.6228 31.1471 21.8014 31.4648C21.98 31.7825 22.2221 31.961 22.4747 31.961C22.7272 31.961 22.9694 31.7825 23.1479 31.4648C23.3265 31.1471 23.4268 30.7162 23.4268 30.2669C23.4268 29.8177 23.3265 29.3868 23.1479 29.0691C22.9694 28.7514 22.7272 28.5729 22.4747 28.5729C22.2221 28.5729 21.98 28.7514 21.8014 29.0691C21.6228 29.3868 21.5225 29.8177 21.5225 30.2669Z" fill="#B2FFB9"/>
<path d="M38.5 47.8333L42.1667 51.5L49.5 44.1667" stroke="#B2FFB9" stroke-width="4" stroke-linecap="round" stroke-linejoin="round"/>
</svg>
