<svg width="52" height="56" viewBox="0 0 52 56" fill="none" xmlns="http://www.w3.org/2000/svg">
<path fill-rule="evenodd" clip-rule="evenodd" d="M6.34921 0.974084L6.31313 1.01016H6.24098L6.20491 1.04623H6.16883L6.13276 1.08231H6.09668L5.98846 1.19053V1.22661L5.91631 1.29876V1.33483L5.88023 1.37091V1.44306L5.84416 1.47913V1.55128L5.80808 1.58736V1.73166L5.77201 1.76773V2.05633L5.73593 2.09241V2.81391L5.77201 2.84999V34.7042L5.73593 34.7403V35.9669L5.77201 36.0029V36.6884L5.80808 36.7244V37.0491L5.84416 37.0852V37.3016L5.88023 37.3377V37.5181L5.91631 37.5542V37.6624L5.95238 37.6985V37.8067L5.98846 37.8428V37.9149L6.02453 37.951V38.0231L6.06061 38.0592V38.0953L6.09668 38.1314V38.2035L6.13276 38.2396V38.2757L6.20491 38.3478V38.3839L6.24098 38.42V38.456L6.31313 38.5282V38.5643L6.38528 38.6364V38.6725L6.60173 38.8889V38.925L6.74603 39.0693H6.78211L7.17893 39.4661H7.21501L7.32323 39.5744H7.35931L7.43146 39.6465H7.46753L7.53968 39.7187H7.57576L7.64791 39.7908H7.68398L7.75613 39.863H7.79221L7.82828 39.899H7.86436L7.93651 39.9712H7.97258L8.04473 40.0433H8.08081L8.15296 40.1155H8.18903L8.26118 40.1876H8.29726L8.36941 40.2598H8.40548L8.44156 40.2959H8.47763L8.54978 40.368H8.58586L8.65801 40.4402H8.69408L8.76623 40.5123H8.80231L8.87446 40.5845H8.91053L8.98268 40.6566H9.01876L9.05483 40.6927H9.09091L9.16306 40.7649H9.19913L9.27128 40.837H9.30736L9.37951 40.9091H9.41558L9.48773 40.9813H9.52381L9.55989 41.0174H9.59596L9.66811 41.0895H9.70419L9.77634 41.1617H9.81241L9.88456 41.2338H9.92064L9.99279 41.306H10.0289L10.101 41.3781H10.1371L10.1732 41.4142H10.2092L10.2814 41.4863H10.3175L10.3896 41.5585H10.4257L10.4978 41.6306H10.5339L10.6061 41.7028H10.6421L10.6782 41.7389H10.7143L10.7864 41.811H10.8225L10.8947 41.8832H10.9307L11.0029 41.9553H11.039L11.075 41.9914H11.1111L11.1833 42.0635H11.2193L11.2915 42.1357H11.3276L11.3997 42.2078H11.4358L11.5079 42.28H11.544L11.5801 42.3161H11.6162L11.6883 42.3882H11.7244L11.7965 42.4604H11.8326L11.9048 42.5325H11.9408L11.9769 42.5686H12.013L12.0851 42.6407H12.1212L12.1934 42.7129H12.2294L12.3016 42.785H12.3377L12.3737 42.8211H12.4098L12.482 42.8933H12.518L12.5902 42.9654H12.6263L12.6984 43.0376H12.7345L12.7706 43.0736H12.8066L12.8788 43.1458H12.9149L12.987 43.2179H13.0231L13.0952 43.2901H13.1313L13.1674 43.3262H13.2035L13.2756 43.3983H13.3117L13.3838 43.4705H13.4199L13.4921 43.5426H13.5281L13.5642 43.5787H13.6003L13.6724 43.6508H13.7085L13.7807 43.723H13.8167L13.8889 43.7952H13.925L13.961 43.8312H13.9971L14.0693 43.9034H14.1053L14.1775 43.9755H14.2136L14.2496 44.0116H14.2857L14.3579 44.0837H14.3939L14.4661 44.1559H14.5022L14.5743 44.228H14.6104L14.6465 44.2641H14.6825L14.7547 44.3363H14.7908L14.8629 44.4084H14.899L14.9351 44.4445H14.9711L15.0433 44.5167H15.0794L15.1515 44.5888H15.1876L15.2237 44.6249H15.2597L15.3319 44.697H15.368L15.4401 44.7692H15.4762L15.5123 44.8053H15.5483L15.6205 44.8774H15.6566L15.7287 44.9496H15.7648L15.8009 44.9856H15.8369L15.9091 45.0578H15.9452L16.0173 45.1299H16.0534L16.0895 45.166H16.1255L16.1977 45.2382H16.2338L16.3059 45.3103H16.342L16.3781 45.3464H16.4141L16.4863 45.4185H16.5224L16.5945 45.4907H16.6306L16.6667 45.5268H16.7027L16.7749 45.5989H16.811L16.8831 45.6711H16.9192L16.9553 45.7071H16.9913L17.0635 45.7793H17.0996L17.1717 45.8514H17.2078L17.2439 45.8875H17.2799L17.3521 45.9597H17.3882L17.4242 45.9957H17.4603L17.5325 46.0679H17.5685L17.6407 46.14H17.6768L17.7128 46.1761H17.7489L17.8211 46.2483H17.8571L17.9293 46.3204H17.9654L18.0014 46.3565H18.0375L18.1097 46.4286H18.1457L18.1818 46.4647H18.2179L18.29 46.5369H18.3261L18.3983 46.609H18.4343L18.4704 46.6451H18.5065L18.5786 46.7172H18.6147L18.6508 46.7533H18.6869L18.759 46.8255H18.7951L18.8312 46.8615H18.8672L18.9394 46.9337H18.9755L19.0476 47.0058H19.0837L19.1198 47.0419H19.1558L19.228 47.1141H19.2641L19.3001 47.1501H19.3362L19.4084 47.2223H19.4444L19.4805 47.2584H19.5166L19.5887 47.3305H19.6248L19.6609 47.3666H19.697L19.7691 47.4387H19.8052L19.8413 47.4748H19.8773L19.9495 47.547H19.9856L20.0577 47.6191H20.0938L20.1299 47.6552H20.1659L20.2381 47.7273H20.2742L20.3102 47.7634H20.3463L20.4185 47.8356H20.4545L20.4906 47.8716H20.5267L20.5988 47.9438H20.6349L20.671 47.9799H20.7071L20.7792 48.052H20.8153L20.8514 48.0881H20.8874L20.9596 48.1602H20.9957L21.0317 48.1963H21.0678L21.1039 48.2324H21.14L21.2121 48.3045H21.2482L21.2843 48.3406H21.3203L21.3925 48.4128H21.4286L21.4646 48.4488H21.5007L21.5729 48.521H21.6089L21.645 48.5571H21.6811L21.7532 48.6292H21.7893L21.8254 48.6653H21.8615L21.8975 48.7014H21.9336L22.0058 48.7735H22.0418L22.0779 48.8096H22.114L22.1501 48.8457H22.1861L22.2583 48.9178H22.2944L22.3304 48.9539H22.3665L22.4387 49.026H22.4747L22.5108 49.0621H22.5469L22.583 49.0982H22.619L22.6912 49.1703H22.7273L22.7633 49.2064H22.7994L22.8355 49.2425H22.8716L22.9076 49.2785H22.9437L22.9798 49.3146H23.0159L23.0519 49.3507H23.1241L23.1602 49.3868H23.2323L23.2684 49.4229H23.3045L23.3405 49.4589H23.4127L23.4488 49.495H23.5209L23.557 49.5311H23.6291L23.6652 49.5672H23.7374L23.7734 49.6032H23.8456L23.8817 49.6393H23.9538L23.9899 49.6754H24.062L24.0981 49.7115H24.2063L24.2424 49.7475H24.3146L24.3506 49.7836H24.4589L24.4949 49.8197H24.5671L24.6032 49.8558H24.7114L24.7475 49.8918H24.8918L24.9278 49.9279H25.0722L25.1082 49.964H25.4329L25.469 49.9279H25.6854L25.7215 49.8918H25.8658L25.9019 49.8558H26.0101L26.0462 49.8197H26.1544L26.1905 49.7836H26.2626L26.2987 49.7475H26.3709L26.4069 49.7115H26.4791L26.5152 49.6754H26.5512L26.5873 49.6393H26.6595L26.6955 49.6032H26.7316L26.7677 49.5672H26.8037L26.8759 49.495H26.912L26.9481 49.4589H26.9841L27.0563 49.3868H27.0924L27.2006 49.2785H27.2367L27.6335 48.8817V48.8457L27.7417 48.7374V48.7014L27.7778 48.6653V48.6292L27.8499 48.5571V48.521L27.886 48.4849V48.4488L27.9221 48.4128V48.3767L27.9582 48.3406V48.3045L27.9942 48.2685V48.2324L28.0303 48.1963V48.1602L28.0664 48.1242V48.052L28.1025 48.0159V47.9438L28.1385 47.9077V47.8356L28.1746 47.7995V47.7273L28.2107 47.6913V47.583L28.2468 47.547V47.4387L28.2828 47.4027V47.2944L28.3189 47.2584V47.078L28.355 47.0419V46.8615L28.3911 46.8255V46.609L28.4271 46.5729V46.2843L28.4632 46.2483V45.9597L28.4993 45.9236V45.4907L28.5354 45.4546V44.8774L28.5714 44.8413V43.7952L28.6075 43.7591V40.1876L28.6436 40.1516V21.2122L28.6075 21.1761V20.9236L28.5714 20.8875V20.635L28.5354 20.5989V20.4185L28.4993 20.3825V20.166L28.4632 20.1299V19.9856L28.4271 19.9496V19.7692L28.3911 19.7331V19.5888L28.355 19.5527V19.4445L28.3189 19.4084V19.2641L28.2828 19.2281V19.1198L28.2468 19.0837V18.9755L28.2107 18.9395V18.8312L28.1746 18.7952V18.6869L28.1385 18.6509V18.5426L28.1025 18.5065V18.3983L28.0664 18.3623V18.2901L28.0303 18.254V18.1458L27.9942 18.1097V18.0376L27.9582 18.0015V17.9293L27.9221 17.8933V17.8211L27.886 17.785V17.6768L27.8499 17.6407V17.5686L27.8139 17.5325V17.4604L27.7778 17.4243V17.3882L27.7417 17.3521V17.28L27.7056 17.2439V17.1718L27.6696 17.1357V17.0635L27.6335 17.0275V16.9553L27.5974 16.9192V16.8832L27.5613 16.8471V16.775L27.5253 16.7389V16.7028L27.4892 16.6667V16.5946L27.4531 16.5585V16.5224L27.417 16.4863V16.4142L27.381 16.3781V16.342L27.3449 16.306V16.2699L27.3088 16.2338V16.1617L27.2727 16.1256V16.0895L27.2367 16.0534V16.0174L27.2006 15.9813V15.9452L27.1645 15.9091V15.8731L27.1284 15.837V15.8009L27.0924 15.7648V15.6927L27.0563 15.6566V15.6205L27.0202 15.5845V15.5484L26.9841 15.5123V15.4762L26.912 15.4041V15.368L26.8759 15.3319V15.2959L26.8398 15.2598V15.2237L26.8037 15.1876V15.1516L26.7677 15.1155V15.0794L26.7316 15.0433V15.0073L26.6955 14.9712V14.9351L26.6234 14.863V14.8269L26.5873 14.7908V14.7547L26.5152 14.6826V14.6465L26.4791 14.6104V14.5744L26.4069 14.5022V14.4661L26.3709 14.4301V14.394L26.2987 14.3218V14.2858L26.2266 14.2136V14.1775L26.1544 14.1054V14.0693L26.0823 13.9972V13.9611L26.0101 13.8889V13.8529L25.9019 13.7446V13.7086L25.7936 13.6003V13.5643L25.6854 13.456V13.42L25.5772 13.3117V13.2757L25.3968 13.0953V13.0592L25.1443 12.8067V12.7706L24.9278 12.5542H24.8918L24.6032 12.2656H24.5671L24.3506 12.0491H24.3146L24.1342 11.8687H24.0981L23.9177 11.6884H23.8817L23.7374 11.5441H23.7013L23.557 11.3998H23.5209L23.4127 11.2915H23.3766L23.2684 11.1833H23.2323L23.1241 11.0751H23.088L22.9798 10.9669H22.9437L22.8355 10.8586H22.7994L22.6912 10.7504H22.6551L22.5469 10.6422H22.5108L22.4387 10.57H22.4026L22.2944 10.4618H22.2583L22.1861 10.3897H22.1501L22.0418 10.2814H22.0058L21.9336 10.2093H21.8975L21.7893 10.1011H21.7532L21.6811 10.0289H21.645L21.5729 9.95677H21.5368L21.5007 9.92069H21.4646L21.3925 9.84854H21.3564L21.3203 9.81247H21.2843L21.2121 9.74032H21.176L21.14 9.70424H21.1039L21.0317 9.63209H20.9957L20.9596 9.59602H20.9235L20.8514 9.52387H20.8153L20.7792 9.48779H20.7431L20.671 9.41564H20.6349L20.5988 9.37957H20.5628L20.4906 9.30742H20.4545L20.4185 9.27134H20.3824L20.3102 9.19919H20.2742L20.2381 9.16312H20.202L20.1299 9.09097H20.0938L20.0577 9.05489H20.0216L19.9495 8.98274H19.9134L19.8773 8.94667H19.8413L19.7691 8.87452H19.733L19.697 8.83844H19.6609L19.5887 8.76629H19.5527L19.5166 8.73022H19.4805L19.4084 8.65807H19.3723L19.3362 8.62199H19.3001L19.228 8.54984H19.1919L19.1558 8.51377H19.1198L19.0476 8.44162H19.0115L18.9755 8.40554H18.9394L18.8672 8.33339H18.8312L18.7951 8.29732H18.759L18.6869 8.22517H18.6508L18.6147 8.18909H18.5786L18.5065 8.11694H18.4704L18.4343 8.08087H18.3983L18.3261 8.00872H18.29L18.254 7.97264H18.2179L18.1457 7.90049H18.1097L18.0736 7.86442H18.0375L17.9654 7.79226H17.9293L17.8932 7.75619H17.8571L17.785 7.68404H17.7489L17.7128 7.64796H17.6768L17.6046 7.57581H17.5685L17.5325 7.53974H17.4964L17.4242 7.46759H17.3882L17.316 7.39544H17.2799L17.2439 7.35936H17.2078L17.1356 7.28721H17.0996L17.0635 7.25114H17.0274L16.9553 7.17899H16.9192L16.8831 7.14291H16.847L16.7749 7.07076H16.7388L16.7027 7.03469H16.6667L16.5945 6.96254H16.5584L16.5224 6.92646H16.4863L16.4141 6.85431H16.3781L16.342 6.81824H16.3059L16.2338 6.74609H16.1977L16.1616 6.71001H16.1255L16.0534 6.63786H16.0173L15.9452 6.56571H15.9091L15.873 6.52964H15.8369L15.7648 6.45749H15.7287L15.6926 6.42141H15.6566L15.5844 6.34926H15.5483L15.5123 6.31319H15.4762L15.404 6.24104H15.368L15.3319 6.20496H15.2958L15.2237 6.13281H15.1876L15.1154 6.06066H15.0794L15.0433 6.02459H15.0072L14.9351 5.95244H14.899L14.8629 5.91636H14.8268L14.7547 5.84421H14.7186L14.6825 5.80814H14.6465L14.5743 5.73599H14.5382L14.4661 5.66384H14.43L14.3939 5.62776H14.3579L14.2857 5.55561H14.2496L14.1775 5.48346H14.1414L14.1053 5.44739H14.0693L13.9971 5.37524H13.961L13.925 5.33916H13.8889L13.8167 5.26701H13.7807L13.7085 5.19486H13.6724L13.6364 5.15879H13.6003L13.5281 5.08664H13.4921L13.4199 5.01449H13.3838L13.3478 4.97841H13.3117L13.2395 4.90626H13.2035L13.1674 4.87019H13.1313L13.0592 4.79804H13.0231L12.9509 4.72589H12.9149L12.8788 4.68981H12.8427L12.7706 4.61766H12.7345L12.6623 4.54551H12.6263L12.5902 4.50944H12.5541L12.482 4.43729H12.4459L12.3737 4.36514H12.3377L12.3016 4.32906H12.2655L12.1934 4.25691H12.1573L12.0851 4.18476H12.0491L12.013 4.14869H11.9769L11.9048 4.07654H11.8687L11.7965 4.00439H11.7605L11.6883 3.93224H11.6522L11.6162 3.89616H11.5801L11.5079 3.82401H11.4719L11.3997 3.75186H11.3636L11.3276 3.71579H11.2915L11.2193 3.64364H11.1833L11.1111 3.57149H11.075L11.0029 3.49934H10.9668L10.9307 3.46326H10.8947L10.8225 3.39111H10.7864L10.7143 3.31896H10.6782L10.6061 3.24681H10.57L10.5339 3.21074H10.4978L10.4257 3.13859H10.3896L10.3175 3.06644H10.2814L10.2092 2.99429H10.1732L10.101 2.92214H10.0649L9.99279 2.84999H9.95671L9.92064 2.81391H9.88456L9.81241 2.74176H9.77634L9.70419 2.66961H9.66811L9.59596 2.59746H9.55989L9.48773 2.52531H9.45166L9.37951 2.45316H9.34344L9.30736 2.41708H9.27128L9.19913 2.34493H9.16306L9.09091 2.27278H9.05483L8.98268 2.20063H8.94661L8.87446 2.12848H8.83838L8.76623 2.05633H8.73016L8.65801 1.98418H8.62193L8.54978 1.91203H8.51371L8.44156 1.83988H8.40548L8.33333 1.76773H8.29726L8.22511 1.69558H8.18903L8.15296 1.65951H8.11688L8.04473 1.58736H8.00866L7.93651 1.51521H7.90043L7.82828 1.44306H7.79221L7.72006 1.37091H7.68398L7.61183 1.29876H7.57576L7.53968 1.26268H7.50361L7.46753 1.22661H7.43146L7.39538 1.19053H7.35931L7.32323 1.15446H7.25108L7.21501 1.11838H7.17893L7.14286 1.08231H7.07071L7.03463 1.04623H6.96248L6.92641 1.01016H6.81818L6.78211 0.974084H6.34921ZM23.1962 0.0361329L23.1602 0.0361328H23.088H23.0159L22.9798 0.0722078H22.9437L22.8782 0.0923088L22.8355 0.141005L22.7994 0.180433L22.6551 0.324733H22.619V0.360808L22.5108 0.469033V0.505108L22.4747 0.541183V0.577258L22.4387 0.613333V0.685483L22.4026 0.721559V1.01016L22.4387 1.04623V1.08231L22.4747 1.11838V1.15446L22.5108 1.19053V1.22661L22.7633 1.47913H22.7994L22.8355 1.51521H22.8716L22.9437 1.58736H22.9798L23.0519 1.65951H23.088L23.1602 1.73166H23.1962L23.2323 1.76773H23.2684L23.3405 1.83988H23.3766L23.4488 1.91203H23.4848L23.5209 1.94811H23.557L23.6291 2.02026H23.6652L23.7374 2.09241H23.7734L23.8095 2.12848H23.8456L23.9177 2.20063H23.9538L23.9899 2.23671H24.026L24.0981 2.30886H24.1342L24.2063 2.38101H24.2424L24.2785 2.41708H24.3146L24.3867 2.48924H24.4228L24.4589 2.52531H24.4949L24.5671 2.59746H24.6032L24.6753 2.66961H24.7114L24.7475 2.70569H24.7835L24.8557 2.77784H24.8918L24.9639 2.84999H25L25.0361 2.88606H25.0722L25.1443 2.95821H25.1804L25.2164 2.99429H25.2525L25.3247 3.06644H25.3608L25.4329 3.13859H25.469L25.5051 3.17466H25.5411L25.6133 3.24681H25.6494L25.6854 3.28289H25.7215L25.7936 3.35504H25.8297L25.9019 3.42719H25.938L25.974 3.46326H26.0101L26.0823 3.53541H26.1183L26.1905 3.60756H26.2266L26.2626 3.64364H26.2987L26.3709 3.71579H26.4069L26.443 3.75186H26.4791L26.5512 3.82401H26.5873L26.6595 3.89616H26.6955L26.7316 3.93224H26.7677L26.8398 4.00439H26.8759L26.912 4.04046H26.9481L27.0202 4.11261H27.0563L27.1284 4.18476H27.1645L27.2006 4.22084H27.2367L27.3088 4.29299H27.3449L27.381 4.32906H27.417L27.4892 4.40121H27.5253L27.5974 4.47336H27.6335L27.6696 4.50944H27.7056L27.7778 4.58159H27.8139L27.8499 4.61766H27.886L27.9582 4.68981H27.9942L28.0664 4.76196H28.1025L28.1385 4.79804H28.1746L28.2468 4.87019H28.2828L28.3189 4.90626H28.355L28.4271 4.97841H28.4632L28.5354 5.05056H28.5714L28.6075 5.08664H28.6436L28.7157 5.15879H28.7518L28.7879 5.19486H28.824L28.8961 5.26701H28.9322L29.0043 5.33916H29.0404L29.0765 5.37524H29.1126L29.1847 5.44739H29.2208L29.2569 5.48346H29.2929L29.3651 5.55561H29.4012L29.4372 5.59169H29.4733L29.5455 5.66384H29.5815L29.6537 5.73599H29.6898L29.7258 5.77206H29.7619L29.8341 5.84421H29.8701L29.9062 5.88029H29.9423L29.9784 5.91636H30.0144L30.0505 5.95244H30.0866L30.1227 5.98851H30.1587L30.2309 6.06066H30.267L30.303 6.09674H30.3391L30.4113 6.16889H30.4473L30.4834 6.20496H30.5195L30.5916 6.27711H30.6277L30.6638 6.31319H30.6999L30.772 6.38534H30.8081L30.8802 6.45749H30.9163L30.9885 6.52964H31.0245L31.0967 6.60179H31.1328L31.241 6.71001H31.2771L31.3853 6.81824H31.4214L31.5296 6.92646H31.5657L31.6739 7.03469H31.71L31.8543 7.17899H31.8903L32.0707 7.35936H32.1068L32.3593 7.61189H32.3954L33.3694 8.58592V8.62199L33.6219 8.87452V8.91059L33.8023 9.09097V9.12704L33.9466 9.27134V9.30742L34.0548 9.41564V9.45172L34.1631 9.55994V9.59602L34.2352 9.66817V9.70424L34.3434 9.81247V9.84854L34.4156 9.92069V9.95677L34.4877 10.0289V10.065L34.5599 10.1371V10.1732L34.632 10.2454V10.2814L34.6681 10.3175V10.3536L34.7403 10.4257V10.4618L34.7763 10.4979V10.534L34.8485 10.6061V10.6422L34.8846 10.6783V10.7143L34.9206 10.7504V10.7865L34.9928 10.8586V10.8947L35.0289 10.9308V10.9669L35.0649 11.0029V11.039L35.101 11.0751V11.1112L35.1371 11.1472V11.1833L35.1732 11.2194V11.2555L35.2092 11.2915V11.3276L35.2453 11.3637V11.3998L35.2814 11.4358V11.4719L35.3175 11.508V11.5441L35.3535 11.5801V11.6162L35.3896 11.6523V11.6884L35.4257 11.7244V11.7966L35.4618 11.8327V11.8687L35.4978 11.9048V11.9409L35.5339 11.977V12.0491L35.57 12.0852V12.1213L35.6061 12.1573V12.1934L35.6421 12.2295V12.3016L35.6782 12.3377V12.4099L35.7143 12.4459V12.482L35.7504 12.5181V12.5902L35.7864 12.6263V12.6985L35.8225 12.7345V12.8067L35.8586 12.8428V12.9149L35.8947 12.951V13.0231L35.9307 13.0592V13.1314L35.9668 13.1674V13.2757L36.0029 13.3117V13.3839L36.039 13.42V13.5282L36.075 13.5643V13.6725L36.1111 13.7086V13.8168L36.1472 13.8529V13.9972L36.1833 14.0332V14.1415L36.2193 14.1775V14.3218L36.2554 14.3579V14.5383L36.2915 14.5744V14.7547L36.3276 14.7908V15.0073L36.3636 15.0433V15.2959L36.3997 15.3319V15.6566L36.4358 15.6927V16.2699L36.4719 16.306V17.0275L36.5079 17.0635V17.9654L36.544 18.0015V19.0477L36.5801 19.0837V20.3825L36.6162 20.4185V22.1501L36.6522 22.1862V24.6393L36.6883 24.6754V36.9409L36.7244 36.977V37.1213L36.7605 37.1573V37.2656L36.7965 37.3016V37.3738L36.8326 37.4099V37.4459L36.8687 37.482V37.5181L36.9048 37.5542V37.5902L36.9408 37.6263V37.6624L36.9769 37.6985V37.7345L37.0491 37.8067V37.8428L37.3737 38.1674H37.4098L37.482 38.2396H37.518L37.5541 38.2757H37.5902L37.6263 38.3117H37.6623L37.6984 38.3478H37.7345L37.7706 38.3839H37.8427L37.8788 38.42H37.987L38.0231 38.456H38.1313L38.1674 38.4921H38.456L38.4921 38.5282H42.6046L42.6407 38.4921H42.8932L42.9293 38.456H43.0736L43.1097 38.42H43.1818L43.2179 38.3839H43.29L43.3261 38.3478H43.3622L43.3983 38.3117H43.4343L43.4704 38.2757H43.5065L43.5426 38.2396H43.5786L43.6508 38.1674H43.6869L43.9394 37.9149V37.8788L44.0115 37.8067V37.7706L44.0476 37.7345V37.6985L44.0837 37.6624V37.6263L44.1198 37.5902V37.5181L44.1558 37.482V37.4099L44.1919 37.3738V37.2295L44.228 37.1934V1.37091L44.1919 1.33483V1.11838L44.1558 1.08231V0.938009L44.1198 0.901934V0.829784L44.0837 0.793709V0.721559L44.0476 0.685483V0.649408L44.0115 0.613333V0.577258L43.9033 0.469033V0.432958L43.8312 0.360808H43.7951L43.7229 0.288658H43.6869L43.6508 0.252583H43.6147L43.5786 0.216508H43.5426L43.5065 0.180433H43.4343L43.3983 0.144358H43.29L43.254 0.108283H43.0736L43.0375 0.0722078H42.7128L42.6768 0.0361328H23.3766L23.3405 0.0361329H23.1962ZM21.5226 30.267C21.5226 30.7163 21.6229 31.1472 21.8015 31.4649C21.98 31.7826 22.2222 31.9611 22.4747 31.9611C22.7273 31.9611 22.9694 31.7826 23.148 31.4649C23.3266 31.1472 23.4269 30.7163 23.4269 30.267C23.4269 29.8177 23.3266 29.3868 23.148 29.0691C22.9694 28.7514 22.7273 28.573 22.4747 28.573C22.2222 28.573 21.98 28.7514 21.8015 29.0691C21.6229 29.3868 21.5226 29.8177 21.5226 30.267Z" fill="#FFBFC0"/>
<path d="M49.5284 47.8749C49.3756 46.7751 48.8654 45.756 48.0763 44.9746C47.2873 44.1933 46.2633 43.693 45.162 43.5509C44.0607 43.4088 42.9432 43.6327 41.9817 44.1882C41.0202 44.7437 40.268 45.5999 39.8409 46.6249M39.5284 44.1249V46.6249H42.0284" stroke="#FFBFC0" stroke-width="1.5" stroke-linecap="round" stroke-linejoin="round"/>
<path d="M39.5283 49.125C39.6812 50.2249 40.1914 51.244 40.9804 52.0253C41.7694 52.8067 42.7935 53.3069 43.8948 53.449C44.9961 53.5911 46.1136 53.3672 47.0751 52.8117C48.0366 52.2562 48.7888 51.4 49.2158 50.375M49.5283 52.875V50.375H47.0283" stroke="#FFBFC0" stroke-width="1.5" stroke-linecap="round" stroke-linejoin="round"/>
</svg>
