<svg width="35" height="35" viewBox="0 0 35 35" fill="none" xmlns="http://www.w3.org/2000/svg">
<g clip-path="url(#clip0_14_159)">
<path d="M17.5 26.25H17.5146" stroke="white" stroke-width="2" stroke-linecap="round" stroke-linejoin="round"/>
<path d="M13.3757 22.1258C14.4696 21.0322 15.9531 20.4179 17.4999 20.4179C19.0467 20.4179 20.5302 21.0322 21.6241 22.1258" stroke="white" stroke-width="2" stroke-linecap="round" stroke-linejoin="round"/>
<path d="M9.25024 18.0002C10.7967 16.4494 12.7502 15.3675 14.8852 14.8794M20.9563 15.1054C22.7685 15.6713 24.4143 16.6727 25.7498 18.0221" stroke="white" stroke-width="2" stroke-linecap="round" stroke-linejoin="round"/>
<path d="M5.12598 13.876C6.61849 12.3804 8.36952 11.1674 10.2943 10.2958M14.8166 8.95417C17.5365 8.53243 20.3176 8.7582 22.9339 9.61314C25.5501 10.4681 27.9279 11.9281 29.8739 13.8746" stroke="white" stroke-width="2" stroke-linecap="round" stroke-linejoin="round"/>
<path d="M4.375 4.375L30.625 30.625" stroke="white" stroke-width="2" stroke-linecap="round" stroke-linejoin="round"/>
</g>
<defs>
<clipPath id="clip0_14_159">
<rect width="35" height="35" fill="white"/>
</clipPath>
</defs>
</svg>
