<svg width="102" height="122" viewBox="0 0 102 122" fill="none" xmlns="http://www.w3.org/2000/svg">
<path d="M50.5576 0.652344C50.8939 0.54856 51.2579 0.566566 51.585 0.705078L100.508 21.4248L100.619 21.4775C101.127 21.7435 101.439 22.2775 101.422 22.8506L101.413 22.9736L94.626 83.3457C94.449 84.9194 93.7039 86.3707 92.5371 87.4307L92.2988 87.6377L51.9531 120.862C51.4339 121.29 50.6995 121.316 50.1533 120.942L50.0469 120.862L9.70117 87.6377C8.4789 86.6311 7.66899 85.2151 7.41699 83.6592L7.37402 83.3457L0.586914 22.9736C0.512821 22.3139 0.880857 21.6837 1.49219 21.4248L50.415 0.705078L50.5576 0.652344Z" stroke="white" stroke-opacity="0.2" stroke-linecap="round"/>
<mask id="mask0_815_887" style="mask-type:alpha" maskUnits="userSpaceOnUse" x="1" y="1" width="100" height="120">
<path d="M51.39 1.16517L100.313 21.8855C100.72 22.0581 100.966 22.4781 100.917 22.918L94.1288 83.2901C93.9546 84.8395 93.1841 86.2602 91.9806 87.2513L51.6357 120.476C51.2665 120.781 50.7336 120.781 50.3643 120.476L10.0194 87.2513C8.8159 86.2602 8.04544 84.8395 7.87124 83.2901L1.08337 22.918C1.03392 22.4781 1.27953 22.0581 1.68712 21.8855L50.61 1.16517C50.8593 1.0596 51.1407 1.0596 51.39 1.16517Z" fill="#D9D9D9"/>
</mask>
<g mask="url(#mask0_815_887)">
</g>
</svg>
